<?xml version="1.0" encoding="utf-8"?>
<!-- Generator: Adobe Illustrator 24.0.1, SVG Export Plug-In . SVG Version: 6.00 Build 0)  -->
<svg version="1.1" id="Layer_1" xmlns="http://www.w3.org/2000/svg" xmlns:xlink="http://www.w3.org/1999/xlink" x="0px" y="0px"
	 viewBox="0 0 1455 931" style="enable-background:new 0 0 1455 931;" xml:space="preserve">
<style type="text/css">
	.st0{fill:url(#SVGID_1_);}
	.st1{fill:#999999;}
	.st2{fill:#B3B3B3;}
	.st3{fill:url(#SVGID_2_);}
	.st4{fill:#333333;}
	.st5{fill:#666666;}
	.st6{fill:#808080;}
	.st7{fill:none;}
	.st8{fill:#FFFFFF;}
	.st9{fill:#FF0000;}
	.st10{fill:#4D4D4D;}
	.st11{fill:#E6E6E6;}
	.st12{fill:#CCCCCC;}
	.st13{fill:#006837;}
	.st14{fill:#FBB03B;}
	.st15{fill:#9E005D;}
	.st16{fill:#39B54A;}
	.st17{fill:#29ABE2;}
	.st18{fill:#FFFFFF;stroke:#FFFF00;stroke-miterlimit:10;}
	.st19{fill:#FFFF00;stroke:#FFFF00;stroke-miterlimit:10;}
	.st20{fill:#FFFFFF;stroke:#FF0000;stroke-miterlimit:10;}
	.st21{fill:url(#SVGID_3_);}
	.st22{fill:#DDDDDD;}
	.st23{font-family:'Didot';}
	.st24{font-size:84.8214px;}
	.st25{font-family:'Didot-Italic';}
	.st26{font-size:72px;}
	.st27{fill:none;stroke:#000000;stroke-width:3;stroke-miterlimit:10;}
</style>
<linearGradient id="SVGID_1_" gradientUnits="userSpaceOnUse" x1="0" y1="350.5" x2="1455" y2="350.5">
	<stop  offset="0" style="stop-color:#FF7BAC"/>
	<stop  offset="1" style="stop-color:#FF7BAC;stop-opacity:0"/>
</linearGradient>
<rect class="st0" width="1455" height="701"/>
<polygon class="st1" points="0,681.5 377.9,563.6 545,523.4 569.8,540.3 632.1,544.3 882.6,567.5 1100.1,597.5 1246.8,715.4
	1460,840.1 1460,640.4 1126,477.8 512.2,451 124.1,466.2 0,562.7 "/>
<polygon class="st2" points="0,662.4 223.8,578.1 510.5,514.4 1099.7,569.2 1268.3,701.8 1455,803.8 1455,937 0,935.2 "/>
<g>
	<linearGradient id="SVGID_2_" gradientUnits="userSpaceOnUse" x1="244.2078" y1="623.9207" x2="798" y2="623.9207">
		<stop  offset="0" style="stop-color:#FFFFFF"/>
		<stop  offset="0.8266" style="stop-color:#000000"/>
	</linearGradient>
	<path class="st3" d="M620.6,562l2.9,7l5.4,12.6l3.7,7.4l3,8.8l2.6,7.4l3.1,6.5l8.2,13.5l8.8,12.6l3.5,7.9l2.9,7l-2.2,6l-1,1.9
		l-2.8,0.9l1.7,5.1l6.9,3.7l4.3,2.3l10.3,3.7l6,3.3l1.5,1.4l0.1,1.9l2.8,0.9l9.1,1.9l12.1,0.5l29.2,1.9l29.8,2.8l9.3,1.4l6,1.4
		l7.7,2.3l2.6,1.4l-1,1.9l-17,6.5l-12.3,6l-4,3.3l-2.7,2.8h-5.6l-2.8-0.9H748l-2.8-0.9h-2.2l-1.4,0.5l8.6,4.7l4.1,2.8l0.1,1.9
		l-0.4,2.8l-5.3,1.4h-6.7l-9.6-0.9l-8.2-1.4l-7.9-1.9l-9.9-2.3l-14.8-3.7l-5.7-1.9l-1.5-1.4l-2.8-0.9l-2.6-1.4l-0.4-1.4l-4-0.9h-4.5
		l-3.5-1.9l0.3-0.5l-3.5-1.9h-1.1l-8.6-4.7h1.1l-2.6-1.4l-10.4-1.4l-0.3-1.4l1.6-0.9l-4.1-2.8h-2.2l-0.8,1.4l-3.5-1.9l-3.1-0.5
		l-8.2-1.4l-7.9-1.9l-3.7-1.4l-7.8-4.2l-8.1-5.6l-18.8-12.6l-9.9-6.5l-32.5-16.3l-33.9-17.7l-17.7-6.5l-3.5-1.9l-8.6-4.7l-0.6-0.9
		l-1.7-0.9l-30.8-11.2l-17.7-6.5L384.4,582l-22.5-7.9l-31.1-10.7l-21.7-7.4l-9.7-2.8l-38.1-12.1l-13.6-3.7l-3.5-1.9l2.8-0.9l0.9-3.7
		l-3-4.7l2.4-2.3h7.8l0.8-1.4l-3.2-2.3l10.9,0.5l-0.5,0.9l12.6-0.5l0.8-1.4l3.6-0.5l2.5-0.5l4.7-0.5l9.1,1.9l2.5-0.5l5.5-1.9h6.7
		l10.2,1.9h3.4l7-0.5l12.1,0.5l8.2,1.4h7.8l3.9-0.9l8.5,0.9l2.6,1.4h4.5l8.4-0.9l14.9,1.4l6,1.4l3.6-0.5l9.2-0.5l7.9,1.9l3.6-0.5
		l23.6,1.9l7-0.5l14.4,2.3l16.3,0.9l24.2,2.8l16.6,2.3l2.6,1.4l15.5,2.3l1.7,0.9l8.2,1.4l1.4-0.5l-6-1.4l12.7,1.4l5.4,2.3l8.2,1.4
		h5.6l7.3,0.9l3.7,1.4l10.2,1.9l5.4,2.3L620.6,562z M586,653.2l-14.2-4.7l-46.2-15.8l-14-5.1l6,3.3l53.8,22.3l7.8,4.2l14.8,9.8
		l1.7-5.1l-5.1-7L586,653.2z M696.7,694.2h-4.5l-3,1.4l2.4,3.7l4.3,2.3l13.9,3.3l7.7,2.3l7.4,2.8l6.8,1.9l0.5-0.9l-0.1-1.9l5-0.9
		l10.3-0.5l6.9-2.3l9-4.2l3.4-4.2l-16-1.4h-13.4l-10.3,0.5h-13.4L696.7,694.2z"/>
	<path class="st4" d="M568.1,460L558,443.2l-17.9-30.3L530,395l-13.4-21.3l-11.2-17.9l-9-15.7l-16.8-32.5L465,277.4l-11.2-19
		l-10.1-16.8l-13.4-14.6l-4.5-4.5l-4.5-2.2l-7.8-12.3v-9v-5.6l3.4-9v-7.8l-1.1-3.4l-3.4-4.5l1.1-2.2l5.6-4.5l11.2-1.1l25.8-4.5
		l24.7-6.7l6.7-3.4l3.4-3.4l3.4-5.6v-3.4l-4.5-4.5l-29.1-15.7L437,99.2l-10.1-7.8l-7.8-6.7h-5.6l-1.1,2.2h-4.5l-1.1,2.2h-2.2
		l-2.2-1.1V76.8l-1.1-6.7l-3.4-4.5l-5.6-6.7l-7.8-3.4h-6.7l-7.8,2.2l-5.6,3.4l-4.5,4.5l-5.6,5.6l-7.8,9l-2.2,4.5l1.1,3.4l-1.1,2.2
		v3.4l2.2,3.4l-2.2,2.2h-4.5v4.5l1.1,1.1v4.5h-1.1v11.2h1.1v3.4l-7.8,3.4l2.2,3.4l3.4,2.2l1.1,6.7h-2.2l-3.4-3.4v4.5l-2.2,1.1
		l-5.6,3.4l-4.5,4.5l-1.1,3.4v10.1l2.2,13.4l4.5,30.3l2.2,15.7l-2.2,39.2l-1.1,42.6l-5.6,15.7v4.5v11.2l1.1,2.2v2.2L311.5,367
		l-5.6,15.7l-11.2,29.1l-7.8,19l-11.2,25.8l-7.8,17.9l-4.5,6.7l-15.7,29.1l-6.7,9v4.5l4.5,2.2l7.8,9l5.6,11.2l6.7,5.6h7.8l3.4,3.4
		l1.1,5.6l10.1-1.1l-2.2-2.2l13.4,1.1l3.4,3.4l4.5,1.1l3.4,1.1l5.6,1.1l5.6-4.5l3.4,1.1l9,4.5h6.7l6.7-4.5h3.4l7.8,1.1l11.2-1.1
		l5.6-3.4h7.8l5.6,2.2l6.7-2.2v-3.4h4.5l10.1,2.2l12.3-3.4l3.4-3.4l4.5,1.1l10.1,1.1l4.5-4.5l4.5,1.1l20.2-4.5l7.8,1.1l10.1-5.6
		l14.6-2.2l19-6.7l12.3-5.6v-3.4l11.2-5.6v-2.2l5.6-3.4l2.2,1.1l-3.4,3.4l10.1-3.4l1.1-5.6l5.6-3.4h5.6l5.6-2.2l1.1-3.4l6.7-4.5
		l1.1-5.6L568.1,460z M364.2,240.4l-5.6,11.2l-16.8,38.1l-4.5,12.3v-7.8l12.3-53.8v-10.1l-3.4-23.5l11.2,12.3l7.8,16.8L364.2,240.4z
		 M398.9,141.8h-4.5l-5.6-3.4l-4.5-9v-5.6l7.8-7.8l3.4-5.6l2.2-6.7l3.4-4.5l2.2,2.2l3.4,4.5l6.7,2.2l11.2,1.1l11.2,5.6l16.8,10.1
		l11.2,10.1l-13.4,3.4H437l-11.2-1.1h-13.4L398.9,141.8z"/>
</g>
<g>
	<path class="st5" d="M67,487.3c-9.8-12.3-23.3-32.9-29.5-60.9c-14-62.9,19.3-113.4,27-124.5c5.2-6.3,10.3-12.7,15.5-19l26-34.1
		l15-17.5l29-39.9l21-33.1l9-15.6l10-24.3l7-29.2l2-19.5V60l3,28.2l10,38.9l22,43.8l27,38.9l24,29.2l26,36l31,41.9l10,18.5
		c3,5.5,6,11,9,16.5c0.7,4.2,1.3,8.5,2,12.7l3,23.4v19.5l-3,21.4l-8,22.4l-6,16.5l-10,14.6l-7,6.8L67,487.3z"/>
	<path class="st6" d="M326,516.3H73c-6.6,0-12-5.4-12-12v-6c0-6.6,5.4-12,12-12h253c6.6,0,12,5.4,12,12v6
		C338,510.9,332.6,516.3,326,516.3z"/>
	<polygon points="83.3,516.3 80.3,528.9 75.3,539.5 65.3,551.1 55.3,557.4 344.3,557.4 336.3,552.1 324.3,537.4 318.3,525.8
		317.3,516.3 	"/>
	<rect x="40.5" y="555.9" class="st5" width="319" height="193.8"/>
	<rect x="59.5" y="588.3" width="33" height="139.2"/>
	<rect x="141.5" y="588.3" class="st7" width="33" height="139.2"/>
	<rect x="141.5" y="588.3" class="st7" width="33" height="139.2"/>
	<rect x="141.5" y="588.3" width="33" height="139.2"/>
	<rect x="224.5" y="588.3" width="33" height="139.2"/>
	<rect x="306.5" y="586.4" width="33" height="139.2"/>
	<polygon points="99.2,748.3 115.2,588.8 132.2,748.3 	"/>
	<polygon points="182.7,748.3 198.7,588.8 215.7,748.3 	"/>
	<polygon points="266.7,748.3 282.7,588.8 299.7,748.3 	"/>
	<polygon points="88.6,787.5 85.6,775.9 80.6,766.2 70.6,755.6 60.6,749.8 349.6,749.8 341.6,754.6 329.6,768.1 323.6,778.8
		322.6,787.5 	"/>
	<rect x="87.5" y="787.5" class="st1" width="229" height="144"/>
	<path d="M161.5,928.6h-39v-97.5c0-10.8,8.7-19.5,19.5-19.5h0c10.8,0,19.5,8.7,19.5,19.5V928.6z"/>
	<path d="M279.5,928.6h-39v-97.5c0-10.8,8.7-19.5,19.5-19.5h0c10.8,0,19.5,8.7,19.5,19.5V928.6z"/>
</g>
<path class="st5" d="M413-1435"/>
<g>
	<path class="st8" d="M936,556.9l21.2-0.1c0,0-3.6,31.5-19.4,31.5s-18.5-31.5-18.5-31.5L936,556.9z"/>
	<path class="st9" d="M936.5,559.3l16.3-0.1c0,0-2.7,25.8-14.9,25.8c-12.1,0-14.2-25.8-14.2-25.8L936.5,559.3z"/>
	<rect x="936.6" y="586.6" class="st8" width="3.3" height="23.8"/>
	<path class="st8" d="M947,611.6h-17.4c-0.7,0-1.3-0.6-1.3-1.3l0,0c0-0.7,0.6-1.3,1.3-1.3H947c0.7,0,1.3,0.6,1.3,1.3l0,0
		C948.3,611.1,947.7,611.6,947,611.6z"/>
</g>
<g>
	<path class="st8" d="M1125.6,558.1l21.2-0.1c0,0-3.6,31.5-19.4,31.5S1109,558,1109,558L1125.6,558.1z"/>
	<path class="st9" d="M1126.1,560.5l16.3-0.1c0,0-2.7,25.8-14.9,25.8c-12.1,0-14.2-25.8-14.2-25.8L1126.1,560.5z"/>
	<rect x="1126.2" y="587.8" class="st8" width="3.3" height="23.8"/>
	<path class="st8" d="M1136.6,612.9h-17.4c-0.7,0-1.3-0.6-1.3-1.3l0,0c0-0.7,0.6-1.3,1.3-1.3h17.4c0.7,0,1.3,0.6,1.3,1.3l0,0
		C1137.9,612.3,1137.3,612.9,1136.6,612.9z"/>
</g>
<g>
	<g>
		<path class="st4" d="M1225.5,704.1l-4.7,1.1l-11.2,0.8h-9.7l-0.9-4.8l12.6-0.1l10.4-1.1l4.9-0.5l3.8-1.4l8.2-1.4l3.6-1.1l3.6-1.9
			v1.9l1-2.2c-0.3,0.1-0.7,0.2-1,0.2c-6.2,0-11.2-26.7-11.2-59.6s5-59.6,11.2-59.6c6.2,0,11.2,26.7,11.2,59.6
			c0,18.4-1.6,34.8-4,45.7l0,0c0,0-2.6,17.5-7.2,18.9l-2.5,1.3v97h-11v-68.9h-28.5l-1.4-7.5h29.9v-17.5L1225.5,704.1z"/>
		<path class="st10" d="M1200.3,681.4c15.3,0,28.9,1.8,37.1,4.5c-2.5-10.7-4.2-29-4.2-49.8c0-32.9,4.2-59.6,9.3-59.6
			c5.1,0,9.3,26.7,9.3,59.6s-4.2,59.6-9.3,59.6c0,0-0.1,0-0.1,0c-6.6,3.9-23,6.6-42.1,6.6c-25,0-45.2-4.7-45.2-10.4
			C1155.1,686.1,1175.3,681.4,1200.3,681.4z"/>
	</g>
	<g>
		<path d="M834.4,704.1l4.7,1.1l11.2,0.8h9.7l0.9-4.8l-12.6-0.1l-10.4-1.1l-4.9-0.5l-3.8-1.4l-8.2-1.4l-3.6-1.1l-3.6-1.9v1.9l-1-2.2
			c0.3,0.1,0.7,0.2,1,0.2c6.2,0,11.2-26.7,11.2-59.6s-5-59.6-11.2-59.6c-6.2,0-11.2,26.7-11.2,59.6c0,18.4,1.6,34.8,4,45.7l0,0
			c0,0,2.6,17.5,7.2,18.9l2.5,1.3v97h11V728h28.5l1.4-7.5h-29.9v-17.5L834.4,704.1z"/>
		<path class="st10" d="M859.6,681.3c-15.3,0-28.9,1.8-37.1,4.5c2.5-10.7,4.2-29,4.2-49.8c0-32.9-4.2-59.6-9.3-59.6
			c-5.1,0-9.3,26.7-9.3,59.6s4.2,59.6,9.3,59.6c0,0,0.1,0,0.1,0c6.6,3.9,23,6.6,42.1,6.6c25,0,45.2-4.7,45.2-10.4
			S884.5,681.3,859.6,681.3z"/>
	</g>
	<path class="st8" d="M876.6,619.7c0,0,2.2-6.3,8.8-7.7c6.6-1.4,32.3,0,32.3,0l52,0.3h67.7l74.5,0.3l60.5-0.3c0,0,8.2-1.9,11.8,9.6
		s5.3,29.3,6.6,34.2c0.5,1.7,0.9,3.5,1.4,5.2l13.1,70.4l8.8,45.5l2.2,9.6l-1.9,2.2l-8.5,3.6l-9.6,1.6l-9.3,1.6l-10.7,1.1h-64.4
		h-95.1H903.1h-22.5l-7.4-1.6l-12.9-2.2l-11-2.7l-5.2-3L864,685.4L876.6,619.7z"/>
	<polygon points="811.6,693.7 814.9,693.4 816.3,695.6 813.3,695.6 	"/>
	<polygon class="st7" points="902.3,611.5 1030.1,702 1155,612.4 	"/>
	<g>
		<polygon class="st11" points="902.4,611.3 1030.1,713.2 1155,611.3 1030.1,702 		"/>
	</g>
	<polygon class="st12" points="1030.2,702.1 1153.5,613.7 902.5,611.5 	"/>
</g>
<path class="st8" d="M-8242.4,2868.5l292.9-1c0,0-49.1,435-267,435s-255-435-255-435L-8242.4,2868.5z"/>
<path class="st9" d="M-8235.7,2902.3l224.7-0.8c0,0-37.7,356.5-204.9,356.5c-167.2,0-195.6-356.5-195.6-356.5L-8235.7,2902.3z"/>
<rect x="-8234" y="3278" class="st8" width="45" height="329"/>
<path class="st8" d="M-8085,3624h-251c-6.6,0-12-5.4-12-12v-11c0-6.6,5.4-12,12-12h251c6.6,0,12,5.4,12,12v11
	C-8073,3618.6-8078.4,3624-8085,3624z"/>
<path class="st13" d="M-6479.5,3264.3l-0.5,637.7h246v-615c0,0-14-161-95-170v-220h-58v214c0,0-124,93-86,176"/>
<rect x="-6432" y="3484" class="st14" width="169" height="275"/>
<g>
	<path class="st13" d="M-1647,2357.4l0,64.9h22.2v-62.6c0,0-1.3-16.4-8.6-17.3V2320h-5.2v21.8c0,0-11.2,9.5-7.8,17.9"/>
	<rect x="-1647" y="2372" class="st15" width="22" height="48"/>
	<rect x="-1643.7" y="2381.8" class="st14" width="15.3" height="28"/>
</g>
<g>
	<path class="st13" d="M-1681.6,2220.2l0,64.9h22.2v-62.6c0,0-1.3-16.4-8.6-17.3v-22.4h-5.2v21.8c0,0-11.2,9.5-7.8,17.9"/>
	<rect x="-1681.6" y="2234.8" class="st15" width="22" height="48"/>
	<rect x="-1678.3" y="2244.6" class="st14" width="15.3" height="28"/>
</g>
<g>
	<path class="st13" d="M982.2,563.5l0,48.2h16.5v-46.5c0,0-0.9-12.2-6.4-12.8v-16.6h-3.9v16.2c0,0-8.3,7-5.8,13.3"/>
	<rect x="982.2" y="574.3" class="st15" width="16.3" height="35.6"/>
	<rect x="984.6" y="581.6" class="st14" width="11.3" height="20.8"/>
</g>
<g>
	<path class="st8" d="M-5574,3964c-5.3-11-10.5-22-15.8-33c-9.6-12-19.2-24-28.8-36l-33.4-18l-31.6-15v-267h-101.2v266l-35.3,14
		l-30.6,24l-25.1,25l-14.9,26l-17.6,44l-4.6,44l6.5,35l18.6,50h307.4l9.3-14l10.2-29v-34v-47L-5574,3964z"/>
	<rect x="-5750" y="3442" class="st16" width="14" height="586"/>

		<rect x="-5723.5" y="3421.3" transform="matrix(0.9975 -7.043961e-02 7.043961e-02 0.9975 -278.2793 -393.3563)" class="st16" width="14" height="655.5"/>

		<rect x="-5752.2" y="3419" transform="matrix(0.993 0.118 -0.118 0.993 399.6306 704.1313)" class="st16" width="14" height="614.4"/>
	<polygon class="st17" points="-5889.1,3992 -5891,4035 -5889.1,4050 -5874,4099 -5587.2,4097 -5577.7,4077 -5573,4006
		-5585.3,3966 -5594.8,3945 -5866.4,3945 	"/>
	<path class="st8" d="M-5646,3595h-167c-6.6,0-12-5.4-12-12v-1c0-6.6,5.4-12,12-12h167c6.6,0,12,5.4,12,12v1
		C-5634,3589.6-5639.4,3595-5646,3595z"/>
</g>
<g>
	<path class="st8" d="M-6803,3873.6c-5.3-11-10.5-22-15.8-33c-9.6-12-19.2-24-28.8-36l-33.4-18l-31.6-15v-267h-101.2v266l-35.3,14
		l-30.6,24l-25.1,25l-14.9,26l-17.6,44l-4.6,44l6.5,35l18.6,50h307.4l9.3-14l10.2-29v-34v-47L-6803,3873.6z"/>
	<rect x="-6979" y="3351.6" class="st16" width="14" height="586"/>

		<rect x="-6952.5" y="3330.9" transform="matrix(0.9975 -7.043961e-02 7.043961e-02 0.9975 -274.9637 -480.1509)" class="st16" width="14" height="655.5"/>

		<rect x="-6981.2" y="3328.6" transform="matrix(0.993 0.118 -0.118 0.993 380.37 848.5532)" class="st16" width="14" height="614.4"/>
	<polygon class="st17" points="-7118.1,3901.6 -7120,3944.6 -7118.1,3959.6 -7103,4008.6 -6816.2,4006.6 -6806.7,3986.6
		-6802,3915.6 -6814.3,3875.6 -6823.8,3854.6 -7095.4,3854.6 	"/>
	<path class="st8" d="M-6875,3504.6h-167c-6.6,0-12-5.4-12-12v-1c0-6.6,5.4-12,12-12h167c6.6,0,12,5.4,12,12v1
		C-6863,3499.2-6868.4,3504.6-6875,3504.6z"/>
</g>
<path class="st18" d="M-6857,3253c0-9.4-28.2-17.4-68.7-21c24.8-30.1,38.2-54.6,31.7-61c-6.5-6.5-31.1,7-61.3,32
	c-4-33.5-11.3-56-19.7-56c-8.5,0-15.9,23.3-19.9,57.9c-29.8-24.5-54-37.6-60.4-31.2c-6.3,6.3,6.3,29.7,29.9,58.7
	c-37.7,3.8-63.6,11.6-63.6,20.5c0,8.9,25.6,16.7,63.1,20.5c-25.1,30.3-38.6,55.1-32.2,61.5c6.5,6.5,31.2-7,61.4-32.1
	c3.2,44.4,11.7,76,21.6,76c9.8,0,18.1-30.7,21.4-74c30.7,25.5,55.8,39.3,62.3,32.8c6.6-6.6-7.8-32.5-34-63.8
	C-6885,3270.4-6857,3262.3-6857,3253z"/>
<circle class="st19" cx="-6977.5" cy="3262.5" r="25.5"/>
<path class="st18" d="M-6746.8,3252.8c0-9.4-28.2-17.4-68.7-21c24.8-30.1,38.2-54.6,31.7-61c-6.5-6.5-31.1,7-61.3,32
	c-4-33.5-11.3-56-19.7-56c-8.5,0-15.9,23.3-19.9,57.9c-29.8-24.5-54-37.6-60.4-31.2c-6.3,6.3,6.3,29.7,29.9,58.7
	c-37.7,3.8-63.6,11.6-63.6,20.5c0,8.9,25.6,16.7,63.1,20.5c-25.1,30.3-38.6,55.1-32.2,61.5c6.5,6.5,31.2-7,61.4-32.1
	c3.2,44.4,11.7,76,21.6,76c9.8,0,18.1-30.7,21.4-74c30.7,25.5,55.8,39.3,62.3,32.8c6.6-6.6-7.8-32.5-34-63.8
	C-6774.8,3270.2-6746.8,3262.2-6746.8,3252.8z"/>
<circle class="st19" cx="-6867" cy="3262" r="25.5"/>
<path class="st18" d="M-6815.5,3380.5c0-9.4-28.2-17.4-68.7-21c24.8-30.1,38.2-54.6,31.7-61c-6.5-6.5-31.1,7-61.3,32
	c-4-33.5-11.3-56-19.7-56c-8.5,0-15.9,23.3-19.9,57.9c-29.8-24.5-54-37.6-60.4-31.2c-6.3,6.3,6.3,29.7,29.9,58.7
	c-37.7,3.8-63.6,11.6-63.6,20.5c0,8.9,25.6,16.7,63.1,20.5c-25.1,30.3-38.6,55.1-32.2,61.5c6.5,6.5,31.2-7,61.4-32.1
	c3.2,44.4,11.7,76,21.6,76c9.8,0,18.1-30.7,21.4-74c30.7,25.5,55.8,39.3,62.3,32.8c6.6-6.6-7.8-32.5-34-63.8
	C-6843.5,3397.9-6815.5,3389.8-6815.5,3380.5z"/>
<circle class="st19" cx="-6931" cy="3391" r="25.5"/>
<g>
	<path class="st8" d="M-6795.7,3710.6c-5.3-11-10.5-22-15.8-33c-9.6-12-19.2-24-28.8-36l-33.4-18l-31.6-15v-267h-101.2v266l-35.3,14
		l-30.6,24l-25.1,25l-14.9,26l-17.6,44l-4.6,44l6.5,35l18.6,50h307.4l9.3-14l10.2-29v-34v-47L-6795.7,3710.6z"/>
	<rect x="-6971.7" y="3188.6" class="st16" width="14" height="586"/>

		<rect x="-6945.2" y="3167.9" transform="matrix(0.9975 -7.043961e-02 7.043961e-02 0.9975 -263.4652 -480.0422)" class="st16" width="14" height="655.5"/>

		<rect x="-6973.9" y="3165.6" transform="matrix(0.993 0.118 -0.118 0.993 361.1848 846.5535)" class="st16" width="14" height="614.4"/>
	<polygon class="st17" points="-7110.8,3738.6 -7112.7,3781.6 -7110.8,3796.6 -7095.7,3845.6 -6808.9,3843.6 -6799.4,3823.6
		-6794.7,3752.6 -6807,3712.6 -6816.5,3691.6 -7088.1,3691.6 	"/>
	<path class="st8" d="M-6867.7,3341.6h-167c-6.6,0-12-5.4-12-12v-1c0-6.6,5.4-12,12-12h167c6.6,0,12,5.4,12,12v1
		C-6855.7,3336.2-6861.1,3341.6-6867.7,3341.6z"/>
</g>
<path class="st18" d="M-6849.7,3090c0-9.4-28.2-17.4-68.7-21c24.8-30.1,38.2-54.6,31.7-61c-6.5-6.5-31.1,7-61.3,32
	c-4-33.5-11.3-56-19.7-56c-8.5,0-15.9,23.3-19.9,57.9c-29.8-24.5-54-37.6-60.4-31.2c-6.3,6.3,6.3,29.7,29.9,58.7
	c-37.7,3.8-63.6,11.6-63.6,20.5c0,8.9,25.6,16.7,63.1,20.5c-25.1,30.3-38.6,55.1-32.2,61.5c6.5,6.5,31.2-7,61.4-32.1
	c3.2,44.4,11.7,76,21.6,76c9.8,0,18.1-30.7,21.4-74c30.7,25.5,55.8,39.3,62.3,32.8c6.6-6.6-7.8-32.5-34-63.8
	C-6877.7,3107.4-6849.7,3099.3-6849.7,3090z"/>
<circle class="st19" cx="-6970.2" cy="3099.5" r="25.5"/>
<path class="st18" d="M-6739.5,3089.9c0-9.4-28.2-17.4-68.7-21c24.8-30.1,38.2-54.6,31.7-61c-6.5-6.5-31.1,7-61.3,32
	c-4-33.5-11.3-56-19.7-56c-8.5,0-15.9,23.3-19.9,57.9c-29.8-24.5-54-37.6-60.4-31.2c-6.3,6.3,6.3,29.7,29.9,58.7
	c-37.7,3.8-63.6,11.6-63.6,20.5c0,8.9,25.6,16.7,63.1,20.5c-25.1,30.3-38.6,55.1-32.2,61.5c6.5,6.5,31.2-7,61.4-32.1
	c3.2,44.4,11.7,76,21.6,76c9.8,0,18.1-30.7,21.4-74c30.7,25.5,55.8,39.3,62.3,32.8c6.6-6.6-7.8-32.5-34-63.8
	C-6767.5,3107.2-6739.5,3099.2-6739.5,3089.9z"/>
<circle class="st19" cx="-6859.7" cy="3099" r="25.5"/>
<path class="st18" d="M-6808.2,3217.5c0-9.4-28.2-17.4-68.7-21c24.8-30.1,38.2-54.6,31.7-61c-6.5-6.5-31.1,7-61.3,32
	c-4-33.5-11.3-56-19.7-56c-8.5,0-15.9,23.3-19.9,57.9c-29.8-24.5-54-37.6-60.4-31.2c-6.3,6.3,6.3,29.7,29.9,58.7
	c-37.7,3.8-63.6,11.6-63.6,20.5c0,8.9,25.6,16.7,63.1,20.5c-25.1,30.3-38.6,55.1-32.2,61.5c6.5,6.5,31.2-7,61.4-32.1
	c3.2,44.4,11.7,76,21.6,76c9.8,0,18.1-30.7,21.4-74c30.7,25.5,55.8,39.3,62.3,32.8c6.6-6.6-7.8-32.5-34-63.8
	C-6836.2,3234.9-6808.2,3226.8-6808.2,3217.5z"/>
<circle class="st19" cx="-6923.7" cy="3228" r="25.5"/>
<g>
	<path class="st8" d="M1058.3,596.3c-0.5-1.1-1.1-2.3-1.6-3.4c-1-1.2-2-2.5-3-3.7l-3.5-1.9l-3.3-1.6v-27.6h-10.5v27.5l-3.6,1.4
		l-3.2,2.5l-2.6,2.6l-1.5,2.7l-1.8,4.5l-0.5,4.5l0.7,3.6l1.9,5.2h31.8l1-1.4l1.1-3v-3.5v-4.9L1058.3,596.3z"/>
	<rect x="1040.1" y="542.4" class="st16" width="1.4" height="60.6"/>

		<rect x="1042.8" y="540.2" transform="matrix(0.9975 -7.043961e-02 7.043961e-02 0.9975 -37.8476 74.9335)" class="st16" width="1.4" height="67.8"/>
	<rect x="1039.9" y="540" transform="matrix(0.993 0.118 -0.118 0.993 74.754 -118.8201)" class="st16" width="1.4" height="63.5"/>
	<polygon class="st17" points="1025.7,599.2 1025.5,603.7 1025.7,605.2 1027.3,610.3 1056.9,610.1 1057.9,608 1058.4,600.7
		1057.1,596.5 1056.1,594.4 1028.1,594.4 	"/>
	<path class="st8" d="M1050.8,558.2h-17.2c-0.7,0-1.3-0.6-1.3-1.3l0,0c0-0.7,0.6-1.3,1.3-1.3h17.2c0.7,0,1.3,0.6,1.3,1.3l0,0
		C1052.1,557.6,1051.5,558.2,1050.8,558.2z"/>
</g>
<path class="st20" d="M1052.7,532.2c0-1-2.9-1.8-7.1-2.2c2.6-3.1,3.9-5.6,3.3-6.3c-0.7-0.7-3.2,0.7-6.3,3.3c-0.4-3.5-1.2-5.8-2-5.8
	c-0.9,0-1.6,2.4-2.1,6c-3.1-2.5-5.6-3.9-6.2-3.2c-0.6,0.6,0.6,3.1,3.1,6.1c-3.9,0.4-6.6,1.2-6.6,2.1c0,0.9,2.7,1.7,6.5,2.1
	c-2.6,3.1-4,5.7-3.3,6.4c0.7,0.7,3.2-0.7,6.3-3.3c0.3,4.6,1.2,7.9,2.2,7.9c1,0,1.9-3.2,2.2-7.7c3.2,2.6,5.8,4.1,6.4,3.4
	c0.7-0.7-0.8-3.4-3.5-6.6C1049.8,534,1052.7,533.1,1052.7,532.2z"/>
<circle class="st9" cx="1038.8" cy="531.9" r="1.9"/>
<path class="st9" d="M1064.1,532.2c0-1-2.9-1.8-7.1-2.2c2.6-3.1,3.9-5.6,3.3-6.3c-0.7-0.7-3.2,0.7-6.3,3.3c-0.4-3.5-1.2-5.8-2-5.8
	c-0.9,0-1.6,2.4-2.1,6c-3.1-2.5-5.6-3.9-6.2-3.2c-0.6,0.6,0.6,3.1,3.1,6.1c-3.9,0.4-6.6,1.2-6.6,2.1c0,0.9,2.7,1.7,6.5,2.1
	c-2.6,3.1-4,5.7-3.3,6.4c0.7,0.7,3.2-0.7,6.3-3.3c0.3,4.6,1.2,7.9,2.2,7.9c1,0,1.9-3.2,2.2-7.7c3.2,2.6,5.8,4.1,6.4,3.4
	c0.7-0.7-0.8-3.4-3.5-6.6C1061.2,534,1064.1,533.1,1064.1,532.2z"/>
<circle class="st8" cx="1051.6" cy="531.9" r="1.9"/>
<path class="st9" d="M1057,545.4c0-1-2.9-1.8-7.1-2.2c2.6-3.1,3.9-5.6,3.3-6.3c-0.7-0.7-3.2,0.7-6.3,3.3c-0.4-3.5-1.2-5.8-2-5.8
	c-0.9,0-1.6,2.4-2.1,6c-3.1-2.5-5.6-3.9-6.2-3.2c-0.6,0.6,0.6,3.1,3.1,6.1c-3.9,0.4-6.6,1.2-6.6,2.1c0,0.9,2.7,1.7,6.5,2.1
	c-2.6,3.1-4,5.7-3.3,6.4c0.7,0.7,3.2-0.7,6.3-3.3c0.3,4.6,1.2,7.9,2.2,7.9c1,0,1.9-3.2,2.2-7.7c3.2,2.6,5.8,4.1,6.4,3.4
	c0.7-0.7-0.8-3.4-3.5-6.6C1054.1,547.2,1057,546.3,1057,545.4z"/>
<circle class="st8" cx="1044.8" cy="544.9" r="1.9"/>
<g>
	<linearGradient id="SVGID_3_" gradientUnits="userSpaceOnUse" x1="-2021.8365" y1="2802.5354" x2="-1468.0443" y2="2802.5354">
		<stop  offset="0" style="stop-color:#FFFFFF"/>
		<stop  offset="0.8266" style="stop-color:#000000"/>
	</linearGradient>
	<path class="st21" d="M-1645.4,2740.7l2.9,7l5.4,12.6l3.7,7.4l3,8.8l2.6,7.4l3.1,6.5l8.2,13.5l8.8,12.6l3.5,7.9l2.9,7l-2.2,6
		l-1,1.9l-2.8,0.9l1.7,5.1l6.9,3.7l4.3,2.3l10.3,3.7l6,3.3l1.5,1.4l0.1,1.9l2.8,0.9l9.1,1.9l12.1,0.5l29.2,1.9l29.8,2.8l9.3,1.4
		l6,1.4l7.7,2.3l2.6,1.4l-1,1.9l-17,6.5l-12.3,6l-4,3.3l-2.7,2.8h-5.6l-2.8-0.9h-4.5l-2.8-0.9h-2.2l-1.4,0.5l8.6,4.7l4.1,2.8
		l0.1,1.9l-0.4,2.8l-5.3,1.4h-6.7l-9.6-0.9l-8.2-1.4l-7.9-1.9l-9.9-2.3l-14.8-3.7l-5.7-1.9l-1.5-1.4l-2.8-0.9l-2.6-1.4l-0.3-1.4
		l-4-0.9h-4.5l-3.5-1.9l0.3-0.5l-3.5-1.9h-1.1l-8.6-4.7h1.1l-2.6-1.4l-10.4-1.4l-0.3-1.4l1.6-0.9l-4.1-2.8h-2.2l-0.8,1.4l-3.5-1.9
		l-3.1-0.5l-8.2-1.4l-7.9-1.9l-3.7-1.4l-7.8-4.2l-8.1-5.6l-18.8-12.6l-9.9-6.5l-32.5-16.3l-33.9-17.7l-17.7-6.5l-3.5-1.9l-8.6-4.7
		l-0.6-0.9l-1.7-0.9l-30.8-11.2l-17.7-6.5l-33.7-12.1l-22.5-7.9l-31.1-10.7l-21.7-7.4l-9.7-2.8l-38.1-12.1l-13.6-3.7l-3.5-1.9
		l2.8-0.9l0.9-3.7l-3-4.7l2.4-2.3h7.8l0.8-1.4l-3.2-2.3l10.9,0.5l-0.5,0.9l12.6-0.5l0.8-1.4l3.6-0.5l2.5-0.5l4.7-0.5l9.1,1.9
		l2.5-0.5l5.5-1.9h6.7l10.2,1.9h3.4l7-0.5l12.1,0.5l8.2,1.4h7.8l3.9-0.9l8.5,0.9l2.6,1.4h4.5l8.4-0.9l14.9,1.4l6,1.4l3.6-0.5
		l9.2-0.5l7.9,1.9l3.6-0.5l23.6,1.9l7-0.5l14.4,2.3l16.3,0.9l24.2,2.8l16.6,2.3l2.6,1.4l15.5,2.3l1.7,0.9l8.2,1.4l1.4-0.5l-6-1.4
		l12.7,1.4l5.4,2.3l8.2,1.4h5.6l7.3,0.9l3.7,1.4l10.2,1.9l5.4,2.3L-1645.4,2740.7z M-1680.1,2831.8l-14.2-4.7l-46.2-15.8l-14-5.1
		l6,3.3l53.8,22.3l7.8,4.2l14.8,9.8l1.7-5.1l-5.1-7L-1680.1,2831.8z M-1569.3,2872.8h-4.5l-3,1.4l2.4,3.7l4.3,2.3l13.9,3.3l7.7,2.3
		l7.4,2.8l6.8,1.9l0.5-0.9l-0.1-1.9l5-0.9l10.3-0.5l6.9-2.3l9-4.2l3.4-4.2l-16-1.4h-13.4l-10.3,0.5h-13.4L-1569.3,2872.8z"/>
	<path class="st4" d="M-1697.9,2638.6l-10.1-16.8l-17.9-30.3l-10.1-17.9l-13.4-21.3l-11.2-17.9l-9-15.7l-16.8-32.5l-14.6-30.3
		l-11.2-19l-10.1-16.8l-13.4-14.6l-4.5-4.5l-4.5-2.2l-7.8-12.3v-9v-5.6l3.4-9v-7.8l-1.1-3.4l-3.4-4.5l1.1-2.2l5.6-4.5l11.2-1.1
		l25.8-4.5l24.7-6.7l6.7-3.4l3.4-3.4l3.4-5.6v-3.4l-4.5-4.5l-29.1-15.7l-23.5-14.6l-10.1-7.8l-7.8-6.7h-5.6l-1.1,2.2h-4.5l-1.1,2.2
		h-2.2l-2.2-1.1v-11.2l-1.1-6.7l-3.4-4.5l-5.6-6.7l-7.8-3.4h-6.7l-7.8,2.2l-5.6,3.4l-4.5,4.5l-5.6,5.6l-7.8,9l-2.2,4.5l1.1,3.4
		l-1.1,2.2v3.4l2.2,3.4l-2.2,2.2h-4.5v4.5l1.1,1.1v4.5h-1.1v11.2h1.1v3.4l-7.8,3.4l2.2,3.4l3.4,2.2l1.1,6.7h-2.2l-3.4-3.4v4.5
		l-2.2,1.1l-5.6,3.4l-4.5,4.5l-1.1,3.4v10.1l2.2,13.4l4.5,30.3l2.2,15.7l-2.2,39.2l-1.1,42.6l-5.6,15.7v4.5v11.2l1.1,2.2v2.2
		l-10.1,26.9l-5.6,15.7l-11.2,29.1l-7.8,19l-11.2,25.8l-7.8,17.9l-4.5,6.7l-15.7,29.1l-6.7,9v4.5l4.5,2.2l7.8,9l5.6,11.2l6.7,5.6
		h7.8l3.4,3.4l1.1,5.6l10.1-1.1l-2.2-2.2l13.4,1.1l3.4,3.4l4.5,1.1l3.4,1.1l5.6,1.1l5.6-4.5l3.4,1.1l9,4.5h6.7l6.7-4.5h3.4l7.8,1.1
		l11.2-1.1l5.6-3.4h7.8l5.6,2.2l6.7-2.2v-3.4h4.5l10.1,2.2l12.3-3.4l3.4-3.4l4.5,1.1l10.1,1.1l4.5-4.5l4.5,1.1l20.2-4.5l7.8,1.1
		l10.1-5.6l14.6-2.2l19-6.7l12.3-5.6v-3.4l11.2-5.6v-2.2l5.6-3.4l2.2,1.1l-3.4,3.4l10.1-3.4l1.1-5.6l5.6-3.4h5.6l5.6-2.2l1.1-3.4
		l6.7-4.5l1.1-5.6L-1697.9,2638.6z M-1901.9,2419l-5.6,11.2l-16.8,38.1l-4.5,12.3v-7.8l12.3-53.8v-10.1l-3.4-23.5l11.2,12.3
		l7.8,16.8L-1901.9,2419z M-1867.1,2320.4h-4.5l-5.6-3.4l-4.5-9v-5.6l7.8-7.8l3.4-5.6l2.2-6.7l3.4-4.5l2.2,2.2l3.4,4.5l6.7,2.2
		l11.2,1.1l11.2,5.6l16.8,10.1l11.2,10.1l-13.4,3.4h-13.4l-11.2-1.1h-13.4L-1867.1,2320.4z"/>
</g>
<rect x="-2416.5" y="2281.5" transform="matrix(6.123234e-17 -1 1 6.123234e-17 -4361.5 902.5)" class="st22" width="1374" height="701"/>
<g>
	<text transform="matrix(1 0 0 1 676.0166 190.8301)" class="st23 st24">Velkommen til</text>
	<text transform="matrix(1 0 0 1 872.6689 301.8926)" class="st25 st26">Bistro</text>
	<text transform="matrix(1 0 0 1 796.5176 413.9648)" class="st23 st24">Babushka</text>
	<line class="st27" x1="837" y1="278.5" x2="727" y2="278.5"/>
	<line class="st27" x1="1200" y1="278.5" x2="1090" y2="278.5"/>
</g>
</svg>
