<?xml version="1.0" encoding="utf-8"?>
<!-- Generator: Adobe Illustrator 24.0.1, SVG Export Plug-In . SVG Version: 6.00 Build 0)  -->
<svg version="1.1" id="Layer_1" xmlns="http://www.w3.org/2000/svg" xmlns:xlink="http://www.w3.org/1999/xlink" x="0px" y="0px"
	 viewBox="0 0 692 1374" style="enable-background:new 0 0 692 1374;" xml:space="preserve">
<style type="text/css">
	.st0{fill:url(#SVGID_1_);}
	.st1{fill:#333333;}
	.st2{fill:url(#SVGID_2_);}
	.st3{font-family:'Didot';}
	.st4{font-size:56.0991px;}
	.st5{font-family:'Didot-Italic';}
	.st6{font-size:47.6193px;}
	.st7{fill:none;stroke:#000000;stroke-width:3;stroke-miterlimit:10;}
</style>
<title>mobilesplash</title>
<linearGradient id="SVGID_1_" gradientUnits="userSpaceOnUse" x1="58.16" y1="516.465" x2="611.99" y2="516.465" gradientTransform="matrix(1 0 0 -1 0 1374)">
	<stop  offset="0" style="stop-color:#FFFFFF"/>
	<stop  offset="0.83" style="stop-color:#000000"/>
</linearGradient>
<path class="st0" d="M434.6,795.7l2.9,7l5.4,12.6l3.7,7.4l3,8.8l2.6,7.5l3.1,6.5l8.2,13.5l8.8,12.6l3.5,7.9l2.9,7l-2.2,6l-1,1.9
	l-2.8,0.9l1.7,5.1l6.9,3.7l4.3,2.3l10.3,3.7l6,3.3l1.5,1.4l0.1,1.9l2.9,0.9l9.1,1.9l12.1,0.5l29.2,1.9l29.8,2.8l9.3,1.4l6,1.4
	l7.7,2.3l2.6,1.4l-1,1.9l-17,6.5l-12.3,6l-4,3.3l-2.7,2.8h-5.6l-2.8-0.9H562l-2.8-0.9h-2.2l-1.4,0.5l8.6,4.7l4.1,2.8l0.1,1.9
	l-0.4,2.8l-5.3,1.4h-6.7l-9.6-0.9l-8.2-1.4l-7.9-1.9l-9.9-2.3l-14.8-3.7l-5.7-1.9l-1.5-1.4l-2.9-0.9l-2.6-1.4l-0.4-1.4l-4-0.9h-4.5
	l-3.5-1.9l0.3-0.5l-3.5-1.9h-1.1l-8.6-4.7h1.1l-2.6-1.4l-10.4-1.4l-0.4-1.4l1.6-0.9l-4.1-2.8h-2.2l-0.8,1.4l-3.5-1.9l-3.1-0.5
	l-8.2-1.4l-7.9-1.9l-3.7-1.4l-7.8-4.1l-8.1-5.6l-18.8-12.6l-9.9-6.5L346.5,878l-33.9-17.7l-17.7-6.5l-3.5-1.8l-8.6-4.7l-0.6-0.9
	l-1.7-0.9l-30.8-11.2l-17.7-6.6l-33.7-12.1l-22.5-7.9l-31.1-10.7l-21.7-7.4l-9.7-2.8l-38.1-12.1L61.6,771l-3.5-1.9l2.8-0.9l0.9-3.7
	l-3-4.7l2.4-2.3h7.8l0.8-1.4l-3.2-2.3l11,0.5l-0.5,0.9l12.6-0.5l0.8-1.4l3.6-0.5l2.5-0.5l4.7-0.5l9.1,1.9l2.5-0.5l5.5-1.9h6.7
	l10.2,1.9h3.4l7-0.5l12.1,0.5l8.2,1.4h7.8l3.9-0.9l8.4,0.9l2.6,1.4h4.5l8.4-0.9l14.9,1.4l5.9,1.4l3.6-0.5l9.2-0.5l7.9,1.9l3.6-0.5
	l23.6,1.9l7-0.5l14.4,2.3l16.3,0.9l24.2,2.8l16.6,2.3l2.6,1.4l15.4,2.3l1.7,0.9l8.2,1.4l1.4-0.5l-6-1.4l12.7,1.4l5.4,2.3l8.2,1.4
	h5.6l7.3,0.9l3.7,1.4l10.2,1.9l5.4,2.3L434.6,795.7z M399.9,886.8l-14.2-4.7l-46.2-15.8l-14-5.1l6,3.2l53.8,22.3l7.8,4.2l14.8,9.8
	l1.7-5.1l-5.1-7L399.9,886.8z M510.7,927.8h-4.5l-3,1.4l2.4,3.7l4.3,2.3l13.9,3.3l7.7,2.3l7.4,2.8l6.8,1.9l0.5-0.9l-0.1-1.9l5-0.9
	l10.3-0.5l6.9-2.3l9-4.2l3.4-4.2l-16-1.4h-13.5l-10.3,0.5h-13.4L510.7,927.8z"/>
<path class="st1" d="M382.1,693.6L372,676.8l-17.9-30.2L344,628.6l-13.5-21.3l-11.2-17.9l-9-15.7l-16.8-32.5L279,511l-11.2-19
	l-10.1-16.9l-13.4-14.6l-4.5-4.5l-4.5-2.2l-7.8-12.3v-14.6l3.4-9v-7.8l-1.1-3.4l-3.4-4.5l1.1-2.2l5.6-4.5l11.2-1.1L270,390l24.6-6.7
	l6.7-3.4l3.4-3.4l3.4-5.6v-3.4l-4.5-4.5l-29.1-15.7L251,332.8l-10.1-7.8l-7.8-6.7h-5.6l-1.1,2.2h-4.5l-1.1,2.2h-2.2l-2.2-1.1v-11.2
	l-1.1-6.7l-3.4-4.5l-5.6-6.7l-7.9-3.4h-6.7l-7.8,2.2l-5.6,3.4l-4.5,4.5l-5.6,5.6l-7.8,9l-2.2,4.5l1.1,3.4l-1.1,2.2v3.4l2.2,3.4
	l-2.2,2.2h-4.5v4.5l1.1,1.1v4.5h-1.1v11.2h1.1v3.4l-7.8,3.4l2.2,3.4l3.4,2.2l1.1,6.7h-2.2l-3.4-3.4v4.5l-2.2,1.1l-5.6,3.4l-4.5,4.5
	l-1.1,3.4v10.1l2.2,13.5l4.5,30.2l2.2,15.7l-2.2,39.2l-1.1,42.6l-5.6,15.7v15.7l1.1,2.2v2.2l-10.1,26.9l-5.6,15.7l-11.2,29.1
	l-7.8,19l-11.2,25.8l-7.8,17.9l-4.5,6.7L61.6,744l-6.7,9v4.5l4.5,2.2l7.8,9l5.6,11.2l6.7,5.6h7.8l3.4,3.4l1.1,5.6l10.1-1.2l-2.2-2.2
	l13.4,1.1l3.4,3.4l4.4,1.1l3.4,1.1l5.6,1.1l5.6-4.5l3.4,1.1l9,4.5h6.7l6.7-4.5h3.4l7.8,1.1l11.2-1.1l5.6-3.4h7.8l5.6,2.2l6.7-2.2
	v-3.4h4.4l10.1,2.2l12.3-3.4l3.4-3.4l4.5,1.1l10.1,1.1l4.5-4.5l4.5,1.1l20.2-4.5l7.9,1.1l10.1-5.6L316,772l19-6.7l12.3-5.6v-3.4
	l11.2-5.6v-2.2l5.6-3.4l2.2,1.1l-3.4,3.4l10.1-3.4l1.1-5.6l5.6-3.4h5.6l5.6-2.2l1.1-3.4l6.7-4.5l1.1-5.6L382.1,693.6z M178.1,474
	l-5.6,11.2l-16.8,38.1l-4.5,12.3v-7.8l12.3-53.8v-10.1l-3.4-23.5l11.2,12.3l7.9,16.8L178.1,474z M212.9,375.4h-4.5l-5.6-3.4l-4.5-9
	v-5.6l7.9-7.9l3.4-5.6l2.2-6.7l3.4-4.5l2.2,2.2l3.4,4.5l6.7,2.2l11.2,1.1l11.2,5.6l16.8,10.1l11.2,10.1l-13.4,3.4H251l-11.2-1.1
	h-13.5L212.9,375.4z"/>
<linearGradient id="SVGID_2_" gradientUnits="userSpaceOnUse" x1="-965.1473" y1="293.9652" x2="481.1685" y2="293.9652" gradientTransform="matrix(5.817072e-17 -0.95 -1.15 -7.041719e-17 688.5599 457.11)">
	<stop  offset="0" style="stop-color:#FF7BAC"/>
	<stop  offset="0.22" style="stop-color:#FF7BAC;stop-opacity:0.76"/>
	<stop  offset="0.6" style="stop-color:#FF7BAC;stop-opacity:0.36"/>
	<stop  offset="0.87" style="stop-color:#FF7BAC;stop-opacity:0.1"/>
	<stop  offset="1" style="stop-color:#FF7BAC;stop-opacity:0"/>
</linearGradient>
<rect class="st2" width="701" height="1374"/>
<g>
	<text transform="matrix(1 0 0 1 278.3035 340.4283)" class="st3 st4">Velkommen til</text>
	<text transform="matrix(1 0 0 1 408.3655 413.8829)" class="st5 st6">Bistro</text>
	<text transform="matrix(1 0 0 1 358.0002 488.005)" class="st3 st4">Babushka</text>
	<line class="st7" x1="384.8" y1="398.4" x2="312" y2="398.4"/>
	<line class="st7" x1="624.9" y1="398.4" x2="552.1" y2="398.4"/>
</g>
</svg>
