<?xml version="1.0" standalone="no"?>
<!DOCTYPE svg PUBLIC "-//W3C//DTD SVG 20010904//EN"
 "http://www.w3.org/TR/2001/REC-SVG-20010904/DTD/svg10.dtd">
<svg version="1.0" xmlns="http://www.w3.org/2000/svg"
 width="260.000000pt" height="260.000000pt" viewBox="0 0 260.000000 260.000000"
 preserveAspectRatio="xMidYMid meet">
<metadata>
Created by potrace 1.11, written by Peter Selinger 2001-2013
</metadata>
<g transform="translate(0.000000,260.000000) scale(0.100000,-0.100000)"
fill="#000000" stroke="none">
<path d="M675 2411 c-36 -21 -65 -63 -69 -97 -2 -13 -6 -27 -9 -31 -4 -3 -7
-23 -7 -44 0 -21 -5 -41 -11 -45 -8 -4 -8 -9 0 -17 6 -6 11 -15 11 -21 0 -5
-3 -7 -6 -3 -3 3 -17 -4 -30 -16 -28 -24 -30 -50 -11 -177 12 -88 8 -288 -10
-425 -14 -107 -138 -420 -228 -576 l-46 -80 30 -35 c17 -19 31 -39 31 -43 0
-5 14 -14 30 -20 17 -5 30 -15 30 -21 0 -7 12 -9 35 -4 22 4 41 2 50 -6 8 -7
27 -10 42 -7 15 3 35 1 44 -4 10 -5 45 -4 85 2 38 5 83 11 99 13 17 2 35 4 40
6 6 1 26 4 45 6 63 6 133 17 188 29 22 5 22 4 22 -109 l0 -114 38 -17 c111
-51 267 -135 337 -181 47 -31 100 -58 129 -64 27 -6 74 -22 105 -36 31 -14 70
-32 86 -40 72 -32 225 -58 243 -40 4 4 -2 14 -12 22 -19 14 -19 14 3 14 20 0
151 57 151 66 0 10 -92 24 -214 33 -76 5 -142 14 -145 19 -3 5 -27 19 -53 30
-49 21 -56 30 -38 48 14 14 0 51 -39 107 -16 23 -48 90 -71 148 l-42 106 -52
11 c-28 6 -87 16 -131 22 -76 10 -153 27 -129 29 10 1 24 11 71 51 7 5 21 10
32 10 10 0 21 7 25 15 3 8 14 15 25 15 11 0 29 12 40 26 20 26 20 27 2 53 -49
69 -295 489 -346 591 -71 141 -109 201 -169 262 l-46 47 5 72 c2 40 8 75 12
79 4 4 40 12 78 18 128 21 175 42 175 78 0 7 -26 27 -58 43 -33 16 -89 50
-126 75 -51 36 -72 45 -91 40 -21 -5 -25 -3 -25 18 0 23 -24 66 -44 80 -19 13
-50 9 -81 -11z m129 -140 c3 -5 23 -12 43 -16 41 -7 111 -45 137 -74 16 -17
15 -19 -15 -25 -18 -3 -54 -3 -80 0 -26 4 -62 2 -79 -4 -38 -14 -58 -7 -66 24
-4 15 1 32 15 50 12 15 21 33 21 40 0 16 16 19 24 5z m-138 -427 c4 -17 -8
-55 -40 -127 -25 -56 -46 -97 -46 -90 0 7 9 52 21 100 14 59 19 106 15 143
l-5 55 25 -28 c13 -15 27 -39 30 -53z m651 -1369 c99 -34 135 -56 119 -73 -3
-2 -20 5 -38 16 -18 11 -73 37 -123 57 -49 20 -92 39 -95 43 -6 6 -9 7 137
-43z m579 -175 c127 0 140 -18 29 -41 -46 -9 -180 24 -169 42 3 6 13 8 21 5 8
-3 62 -6 119 -6z"/>
</g>
</svg>
